<svg xmlns="http://www.w3.org/2000/svg" viewBox="0 0 30.54 30.54"><defs><style>.cls-1{fill:#fff;}</style></defs><title>globe</title><g id="Layer_2" data-name="Layer 2"><g id="Layer_1-2" data-name="Layer 1"><path class="cls-1" d="M15.27,0A15.27,15.27,0,1,0,30.54,15.27h0A15.27,15.27,0,0,0,15.27,0Zm9.09,4.41L25.89,8l-1.53.35L23.15,5.27,18.46,4l-1.59-2ZM5.9,21.52,3.19,18l2.08-4,2.6,3.23L8.54,22Zm7.37,4.37-1.18-1.18,1.6-1,1.58,1.56ZM13.43,22a14.53,14.53,0,0,1-.83-3c.17-.22,1.67-3.46,1.67-3.46L12.6,11.7,8.92,10.1l-1-2.49,3.19-3.19,9.16,2.36s3.4,4.65,3.4,5.07A50.77,50.77,0,0,1,22,18.44c-.28.28-4.3,3.54-4.3,3.54Zm9.42,3.5H20.13l-.49-2L24,22l.49-3.51,2.15,4.16Z"/></g></g></svg>