<svg xmlns="http://www.w3.org/2000/svg" viewBox="0 0 88.05 79.82"><defs><style>.cls-1{fill:#fff;}</style></defs><title>member</title><g id="Layer_2" data-name="Layer 2"><g id="Layer_1-2" data-name="Layer 1"><path class="cls-1" d="M56.09,15.8c7.46,0,14.93-.05,22.4,0C85,15.88,88,18.75,88,25.25q.1,22.48,0,45c0,6.57-2.92,9.56-9.39,9.57q-34.71.08-69.43,0C3,79.76.08,76.72.05,70.48Q0,47.75.05,25c0-6.21,3-9.13,9.24-9.2,7.48-.08,15,0,21,0,2.24-4.87,3.56-9.44,6.26-12.94C38.07.94,41.88,0,44.65,0,52,0,55.88,5.55,56.09,15.8Zm-28.14,48c3.5,0,7,.22,10.49-.09,1.88-.17,3.67-1.25,5.5-1.93-.88-2-1.25-4.63-2.73-6C35.48,50.43,21,50.5,14.9,55.58a9,9,0,0,0-2.2,2.67c-1.75,3.42-.58,5.43,3.24,5.53C19.94,63.88,23.94,63.8,27.94,63.8Zm0-16a8,8,0,1,0-7.92-7.88A7.9,7.9,0,0,0,28,47.77Zm35.9-4c2.48,0,5.12.52,7.4-.17,1.79-.54,3.13-2.56,4.67-3.93-1.45-1.29-2.8-3.55-4.35-3.7a81.77,81.77,0,0,0-15.36,0c-1.49.14-2.77,2.54-4.15,3.9,1.45,1.29,2.71,3.24,4.39,3.71C58.79,44.26,61.41,43.78,63.89,43.79Zm.16,16c2.65,0,5.4.44,7.91-.16,1.53-.37,2.68-2.32,4-3.57-1.33-1.4-2.56-3.88-4-4a91.49,91.49,0,0,0-15.86,0c-1.42.12-2.66,2.32-4,3.56,1.33,1.4,2.45,3.57,4.05,4C58.61,60.27,61.4,59.77,64,59.77ZM44,6.08c-1.87,2.68-3.89,4.35-3.64,5.53.34,1.57,2.45,2.76,3.8,4.12,1.27-1.27,3.54-2.52,3.56-3.81C47.73,10.39,45.84,8.82,44,6.08Z"/></g></g></svg>