<svg xmlns="http://www.w3.org/2000/svg" viewBox="0 0 780.08 207.77"><defs><style>.cls-1{fill:#3b566e;}</style></defs><title>qweb_logo</title><g id="Layer_2" data-name="Layer 2"><g id="Layer_1-2" data-name="Layer 1"><path class="cls-1" d="M589,197.7c-11.4-12.39-27.15-19.67-26-42.82,2.34-47,.55-94.23.46-141.36,0-3.89,0-7.78,0-13.52,9.21,1.36,17.29,2,25,4,2.12.56,4.32,5.27,4.43,8.15.49,12.51.22,25,.22,37.57,0,3.13,0,6.25,0,7.41,16.33-1.16,31.25-3.57,46-3,25.12,1,43.09,17.22,51.12,41.2,7.09,21.15,5.39,41.75-2,61.93-10.39,28.41-39.29,42.19-68.37,33.72-13.51-3.94-14.91-5.81-14.91-20,0-3.54,0-7.07,0-10.82,2.1.14,3.22-.11,4,.31,25.12,14,49.22,2.35,53.19-26.07a79.27,79.27,0,0,0,0-20.68c-2.7-21.37-17.4-34-37.36-32.79-19,1.13-32.57,15.63-33,36.53-.45,23.72-.1,47.45-.09,71.17q0,3.88,0,7.75Z"/><path class="cls-1" d="M224.61,57.43c11.53,0,19.42-.59,27.13.32,2.69.32,5.91,3.92,7.23,6.79,10.07,21.82,19.72,43.84,29.56,65.77.48,1.06,1.48,1.88,3.36,4.2,6.59-14.5,12.6-27.83,18.69-41.13S322.85,66.79,329,53.5l2.87-.08,38.44,82.39c2.4-5.58,3.65-8.65,5-11.67,9.11-20.11,18-40.33,27.62-60.21,1.45-3,6-5.82,9.46-6.27,7.31-1,14.83-.29,24.45-.29l-67.07,136-39.2-88.39-38.09,85.42-2.83.33Z"/><path class="cls-1" d="M526.38,104.53c-.74-13.47-7.08-21.28-17.23-26-21.89-10.08-45.54,0-52.3,23.06a74.93,74.93,0,0,0-2.21,28.23c1.6,15.27,8.77,28.08,24.67,32.67,16.44,4.75,31.34,1.07,43.55-11.48,1.58-1.62,3.13-3.27,4.72-4.95l20.33,19.33c-19.52,23.38-44.25,29.46-72.39,24.42-26.85-4.82-43.1-21.72-50-47.52-10.23-38.33,7.17-75.05,41.18-88.21,46.53-18,91.6,13,91.25,62.51,0,6.06-1.93,8.19-7.93,8.12-18.47-.24-36.94-.34-55.41,0-8.59.17-7.24-5.48-7.54-10.65-.32-5.44-.07-9.9,7.41-9.67C504.89,104.77,515.3,104.53,526.38,104.53Z"/><path class="cls-1" d="M211.23,175.67l28.27,31c-15.45,2.11-27.87,2.44-37.14-11.12C196.5,187,188.29,180,180.27,171.41c3-2.34,5.53-4.22,8-6.16,19.89-15.8,25.52-45.42,13-68.1-12.44-22.46-37.74-32.25-61.81-23.91-23.32,8.08-38,34.14-33.6,59.6s26.09,45.05,51.2,43.08c13.8-1.08,19.09,6.8,26,15-23.12,15.06-64.23,4.62-85.31-21.24-23.21-28.49-21.79-71.11,3.23-96.8,28.66-29.42,70.2-32.63,102-8.27C229.11,84.67,247.83,131.28,211.23,175.67Z"/><path class="cls-1" d="M79.84,76C72.27,89.35,65.2,103,57,116c-4.35,6.83-3.07,11.6.85,17.77a272.24,272.24,0,0,1,21,39.64c-9.69-5.41-19.5-10.61-29-16.27-14.14-8.39-28.11-17.06-42.11-25.69-10-6.19-10.25-9.15-.58-15,23.59-14.19,47.32-28.14,71-42.19Z"/><path class="cls-1" d="M702,74.7c6.4,3.66,12.86,7.24,19.2,11,17.54,10.38,35.11,20.7,52.51,31.31,8.17,5,8.54,8.15,1.05,12.72-24.29,14.83-48.87,29.21-74.85,42.73,6.59-11.79,12.62-23.94,20-35.24,5.51-8.48,7.85-15.36,1.25-24.78-7.87-11.23-13.84-23.79-20.64-35.77Z"/></g></g></svg>